<svg xmlns="http://www.w3.org/2000/svg" width="1200" height="630" viewBox="0 0 1200 630" fill="none">
  <rect width="1200" height="630" fill="#F8FAFC"/>
  <circle cx="1010" cy="92" r="180" fill="#DFF3EA"/>
  <circle cx="102" cy="548" r="220" fill="#E4EEF7"/>
  <rect x="92" y="86" width="1016" height="458" rx="36" fill="white" stroke="#D9E6F2" stroke-width="2"/>
  <rect x="148" y="150" width="62" height="62" rx="18" fill="#0F4C81"/>
  <path d="M164 196V166L178 190L192 166V196" stroke="white" stroke-width="7" stroke-linecap="round" stroke-linejoin="round"/>
  <text x="232" y="192" fill="#0F4C81" font-family="Inter, Arial, sans-serif" font-size="56" font-weight="800">Novixa</text>
  <text x="148" y="292" fill="#102A43" font-family="Inter, Arial, sans-serif" font-size="58" font-weight="800">NÁn tŁng v­n hŕnh</text>
  <text x="148" y="360" fill="#102A43" font-family="Inter, Arial, sans-serif" font-size="58" font-weight="800">nhŕ thuŃc thông minh</text>
  <text x="150" y="430" fill="#5B7085" font-family="Inter, Arial, sans-serif" font-size="28">POS " Kho FEFO " CRM " Dashboard " AI</text>
  <rect x="760" y="166" width="286" height="240" rx="24" fill="#0F4C81"/>
  <rect x="790" y="204" width="226" height="24" rx="12" fill="#DFF3EA"/>
  <rect x="790" y="256" width="72" height="94" rx="12" fill="#18B76A"/>
  <rect x="880" y="232" width="72" height="118" rx="12" fill="#66C9F4"/>
  <rect x="970" y="278" width="46" height="72" rx="12" fill="#FFFFFF"/>
  <rect x="790" y="374" width="226" height="8" rx="4" fill="#BFD4E8"/>
</svg>
